<?xml version="1.0" encoding="utf-8"?>
<!-- Generator: Adobe Illustrator 26.3.1, SVG Export Plug-In . SVG Version: 6.00 Build 0)  -->
<svg version="1.1" id="Illustration" xmlns="http://www.w3.org/2000/svg" xmlns:xlink="http://www.w3.org/1999/xlink" x="0px"
	 y="0px" viewBox="0 0 1803.8 1830" style="enable-background:new 0 0 1803.8 1830;" xml:space="preserve">
<style type="text/css">
	.st0{fill:#FFFFFF;}
	.st1{fill:#ECA900;}
</style>
<g id="Online_workshop">
	<g>
		<g>
			<g>
				<g>
					<path class="st0" d="M358.2,109.2h1373.4c38.5,0,69.6,31.2,69.6,69.6v1068.9c0,38.5-31.2,69.6-69.6,69.6H358.2
						c-38.5,0-69.6-31.2-69.6-69.6V178.8C288.5,140.3,319.7,109.2,358.2,109.2z"/>
					<path d="M1731.6,1319.6H358.2c-39.6,0-71.9-32.2-71.9-71.9V178.8c0-39.6,32.2-71.9,71.9-71.9h1373.5
						c39.6,0,71.9,32.2,71.9,71.9v1068.9C1803.5,1287.3,1771.2,1319.6,1731.6,1319.6z M358.2,111.4c-37.2,0-67.4,30.2-67.4,67.4
						v1068.9c0,37.2,30.2,67.4,67.4,67.4h1373.5c37.2,0,67.4-30.2,67.4-67.4V178.8c0-37.2-30.2-67.4-67.4-67.4H358.2z"/>
				</g>
				<path d="M1801.6,260.2H288.9c-1.2,0-2.2-1-2.2-2.2V179c0-39.7,32.3-72,72-72h1373.1c39.7,0,72,32.3,72,72V258
					C1803.8,259.3,1802.8,260.2,1801.6,260.2L1801.6,260.2z M291.1,255.8h1508.3V179c0-37.3-30.3-67.6-67.6-67.6H358.7
					c-37.3,0-67.6,30.3-67.6,67.6L291.1,255.8L291.1,255.8z"/>
				<path d="M1629.4,1207.5h-1169c-33,0-59.9-26.9-59.9-59.9V421.5c0-33,26.9-59.9,59.9-59.9h1169c33,0,59.9,26.9,59.9,59.9v726.1
					C1689.3,1180.7,1662.4,1207.5,1629.4,1207.5L1629.4,1207.5z M460.4,366c-30.6,0-55.5,24.9-55.5,55.5v726.1
					c0,30.6,24.9,55.5,55.5,55.5h1169c30.6,0,55.5-24.9,55.5-55.5V421.5c0-30.6-24.9-55.5-55.5-55.5L460.4,366L460.4,366z"/>
			</g>
			<g>
				<ellipse transform="matrix(0.7071 -0.7071 0.7071 0.7071 324.6119 1156.1682)" cx="1557.9" cy="186.2" rx="25.4" ry="25.4"/>
				<ellipse transform="matrix(0.2297 -0.9733 0.9733 0.2297 1082.7491 1740.5011)" cx="1640.9" cy="186.2" rx="25.4" ry="25.4"/>
				
					<ellipse transform="matrix(0.2297 -0.9733 0.9733 0.2297 1146.7578 1821.3596)" class="st1" cx="1724" cy="186.2" rx="25.4" ry="25.4"/>
			</g>
		</g>
		<g>
			<g>
				<path class="st0" d="M48.9,2.2h823.9c25.8,0,46.7,20.9,46.7,46.7v589.7c0,25.8-20.9,46.7-46.7,46.7H48.9
					c-25.8,0-46.7-20.9-46.7-46.7V48.9C2.2,23.1,23.1,2.2,48.9,2.2z"/>
				<path d="M872.8,687.5H48.9c-27,0-48.9-21.9-48.9-48.9V48.9C0,21.9,21.9,0,48.9,0h823.9c27,0,48.9,21.9,48.9,48.9v589.7
					C921.7,665.6,899.8,687.5,872.8,687.5L872.8,687.5z M48.9,4.4C24.4,4.4,4.4,24.4,4.4,48.9v589.7c0,24.5,19.9,44.5,44.5,44.5
					h823.9c24.5,0,44.5-19.9,44.5-44.5V48.9c0-24.5-19.9-44.5-44.5-44.5C872.8,4.5,48.9,4.5,48.9,4.4z"/>
			</g>
			<g>
				<path class="st1" d="M830.8,88.4H674.5c-6.5,0-11.7-5.2-11.7-11.7S668.1,65,674.5,65h156.2c6.5,0,11.7,5.2,11.7,11.7
					S837.2,88.4,830.8,88.4z"/>
				<path class="st1" d="M864.3,138.5H640.6c-6.5,0-11.7-5.2-11.7-11.7s5.2-11.7,11.7-11.7h223.7c6.5,0,11.7,5.2,11.7,11.7
					C876,133.3,870.8,138.5,864.3,138.5z"/>
				<path d="M864.9,232.6H641.3c-6.5,0-11.7-5.2-11.7-11.7s5.2-11.7,11.7-11.7h223.6c6.5,0,11.7,5.2,11.7,11.7
					S871.4,232.6,864.9,232.6z"/>
				<path class="st1" d="M864.2,277.8H645.5c-6.5,0-11.7-5.2-11.7-11.7s5.2-11.7,11.7-11.7h218.7c6.5,0,11.7,5.2,11.7,11.7
					S870.6,277.8,864.2,277.8z"/>
				<path d="M865.6,323.7H646.9c-6.5,0-11.7-5.2-11.7-11.7s5.2-11.7,11.7-11.7h218.7c6.5,0,11.7,5.2,11.7,11.7
					S872.1,323.7,865.6,323.7z"/>
				<path d="M864.9,368.9H641.3c-6.5,0-11.7-5.2-11.7-11.7s5.2-11.7,11.7-11.7h223.6c6.5,0,11.7,5.2,11.7,11.7
					S871.4,368.9,864.9,368.9z"/>
				<path d="M864.2,415.6H640.6c-6.5,0-11.7-5.2-11.7-11.7s5.2-11.7,11.7-11.7h223.6c6.5,0,11.7,5.2,11.7,11.7
					S870.6,415.6,864.2,415.6z"/>
				<path d="M722.4,187.6H641c-6.5,0-11.7-5.2-11.7-11.7s5.2-11.7,11.7-11.7h81.4c6.5,0,11.7,5.2,11.7,11.7S728.9,187.6,722.4,187.6
					z"/>
				<path d="M865.4,187.6h-85.9c-6.5,0-11.7-5.2-11.7-11.7s5.2-11.7,11.7-11.7h85.9c6.5,0,11.7,5.2,11.7,11.7
					S871.9,187.6,865.4,187.6z"/>
			</g>
			<g>
				<path d="M283.5,452.9H63.2c-6.5,0-11.7-5.2-11.7-11.7s5.2-11.7,11.7-11.7h220.4c6.5,0,11.7,5.2,11.7,11.7S290,452.9,283.5,452.9
					L283.5,452.9z"/>
				<path d="M492.7,452.1H324c-6.5,0-11.7-5.2-11.7-11.7s5.2-11.7,11.7-11.7h168.7c6.5,0,11.7,5.2,11.7,11.7
					S499.2,452.1,492.7,452.1L492.7,452.1z"/>
				<path class="st1" d="M217.7,404.1H62.4c-6.5,0-11.7-5.2-11.7-11.7s5.2-11.7,11.7-11.7h155.3c6.5,0,11.7,5.2,11.7,11.7
					S224.2,404.1,217.7,404.1z"/>
			</g>
			<path d="M493.3,654.1H66.4c-10.2,0-18.5-8.3-18.5-18.5V500.7c0-10.2,8.3-18.5,18.5-18.5h426.8c10.2,0,18.5,8.3,18.5,18.5v134.9
				C511.8,645.8,503.5,654.1,493.3,654.1z M66.4,486.6c-7.8,0-14.1,6.3-14.1,14.1v134.9c0,7.8,6.3,14.1,14.1,14.1h426.8
				c7.8,0,14.1-6.3,14.1-14.1V500.7c0-7.8-6.3-14.1-14.1-14.1L66.4,486.6L66.4,486.6z"/>
			<path d="M868.2,654.1H562.9c-10.2,0-18.5-8.3-18.5-18.5V500.7c0-10.2,8.3-18.5,18.5-18.5h305.3c10.2,0,18.5,8.3,18.5,18.5v134.9
				C886.8,645.8,878.5,654.1,868.2,654.1z M562.9,486.6c-7.8,0-14.1,6.3-14.1,14.1v134.9c0,7.8,6.3,14.1,14.1,14.1h305.3
				c7.8,0,14.1-6.3,14.1-14.1V500.7c0-7.8-6.3-14.1-14.1-14.1H562.9z"/>
			<path d="M67.9,64.2h513.5c9.8,0,17.8,8,17.8,17.8v223.1c0,9.8-8,17.8-17.8,17.8H67.9c-9.8,0-17.8-8-17.8-17.8V82
				C50.2,72.2,58.1,64.2,67.9,64.2z"/>
		</g>
		<g>
			<path d="M1634.4,1204.9c-2.1-11.1-4.2-19.4-6-27.2c-13.6-57.8-28.1-105-38.8-136.8l-28.8-105.1l-355.7,64.7
				c0,0-11.5,77.7-35,204.4L1634.4,1204.9L1634.4,1204.9z"/>
			<g>
				<path d="M1251.1,1191.6c39.1,0,64.5-42.5,47-78.7c-4-8.3-8.1-16.7-12.1-24.8c-30-60.6-115.9-47.3-126.6,19.8
					c-0.2,1.2-2.6,2.4-2.7,3.6c-5.5,42.5,27.2,80.1,68.6,80.1L1251.1,1191.6L1251.1,1191.6z"/>
				<g>
					<g>
						<g>
							<path class="st0" d="M1739.8,715.3c0-149.3-29-218.3-232.2-274.1c-51.6-14.2-127.7-20.1-201.4-11.9
								c-205.3,2.5-283.7,94.1-355.6,91.9C871.6,518.7,805.9,416,805.9,416c-26.2-28.4-54-14-68.8-5.6
								c-17.8,10.1-25.4,33.8-28.6,50.5c-2.1,10.7-0.2,21.9,5,31.4c26.2,47,118.4,201.3,203.7,214.1
								c67.7,10.1,203.3-27.6,265.1-39.5c43.6,152.1-25.6,444.8-25.6,444.8c51.7-37,224.7,10.7,335.6,52.8
								c55.4,21.1,105.2,9.3,141.6-11.5c36.3-20.8-28-235.6-28-235.6S1739.8,845.5,1739.8,715.3L1739.8,715.3z"/>
							<path d="M1551.3,1177.8c-18.4,0-38.5-3.2-59.9-11.4c-98.9-37.6-280.5-91.1-333.5-53.1c-0.8,0.5-1.8,0.6-2.5,0
								c-0.8-0.5-1.1-1.5-0.9-2.4c0.7-2.9,68-291.4,26.2-441.7c-13.1,2.6-29.2,6.2-47.7,10.4c-68.8,15.5-162.9,36.7-216.2,28.8
								c-86.2-12.8-178.9-167.9-205.3-215.2c-5.6-10-7.5-21.6-5.3-32.9c3.5-18,11.4-41.6,29.7-52c13-7.4,43.3-24.6,71.6,6
								c0.1,0.1,0.2,0.2,0.2,0.3c0.7,1,66,101.8,143,104.2c27,0.9,55.3-12,91.2-28.2c57.9-26.2,137.1-62.1,264.3-63.6
								c69.3-7.8,146.8-3.2,202,11.9c100.7,27.7,160.4,59.4,193.4,102.8c33.5,44,40.3,101.2,40.3,173.5c0,68-36.8,119.8-67.7,151.3
								c-29.3,29.9-58.9,47.6-66,51.7c2.8,9.6,16.9,58.3,27.2,108.5c15.5,75.8,15.3,118.8-0.7,128
								C1614.3,1166.6,1585.6,1177.8,1551.3,1177.8L1551.3,1177.8z M1215.8,1096.1c79.2,0,202,37.6,277.2,66.2
								c59.5,22.6,108.8,6.3,139.7-11.3c28.6-16.3-11.3-173.8-29.1-233.1c-0.3-1,0.2-2.1,1.1-2.6c1.3-0.7,132.9-72.6,132.9-200
								c0-141.8-22.7-214.9-230.5-272c-54.7-15-131.5-19.5-200.5-11.8c-126.4,1.6-205.2,37.2-262.7,63.3
								c-36.4,16.5-65.1,29.5-93.2,28.6c-78.5-2.5-142.6-99.9-146.5-106.1c-22.7-24.5-46.1-16.3-66-5c-16.8,9.5-24.2,31.9-27.5,48.9
								c-2,10.2-0.3,20.8,4.8,29.8c26.1,46.8,117.9,200.4,202.1,212.9c52.4,7.8,146.1-13.3,214.5-28.7c19.4-4.4,36.2-8.2,49.8-10.8
								c1.1-0.2,2.2,0.5,2.6,1.6c40,139.7-15.4,400.4-24.4,440.7C1173.4,1099.3,1192.8,1096.1,1215.8,1096.1L1215.8,1096.1z"/>
						</g>
						<path d="M763.2,512.6c-22.9,0-37.7-25.3-38.3-26.4c-0.6-1.1-0.2-2.4,0.8-3c1.1-0.6,2.4-0.2,3,0.8c0.1,0.2,14.5,24.5,34.9,24.2
							c15.7-0.2,31.3-14.5,46.3-42.4c0.6-1.1,1.9-1.5,3-0.9s1.5,1.9,0.9,3c-15.8,29.4-32.7,44.5-50.2,44.7
							C763.5,512.6,763.3,512.6,763.2,512.6L763.2,512.6z"/>
					</g>
					<path d="M1421.2,852.7c-0.8,0-1.6-0.5-2-1.3c-0.5-1.1,0-2.4,1.1-3c75.4-34.9,111.9-86,129.3-122.8c18.8-39.9,19.9-72,19.9-72.3
						c0-1.2,1-2.2,2.2-2.2h0.1c1.2,0,2.2,1,2.2,2.3c0,1.3-1,33.2-20.2,73.9c-17.7,37.5-54.8,89.7-131.5,125.2
						C1421.9,852.6,1421.6,852.7,1421.2,852.7L1421.2,852.7z"/>
					<path d="M1454.6,957.4c-1.2,0-2.2-1-2.2-2.2c0-1.2,1-2.2,2.2-2.2c92.4-1.1,153.4-35.5,154-35.8c1.1-0.6,2.4-0.2,3,0.8
						s0.2,2.4-0.8,3C1610.1,921.4,1548.1,956.3,1454.6,957.4L1454.6,957.4L1454.6,957.4z"/>
				</g>
				<g>
					<path class="st0" d="M1369,949.3c0,0,18.9,2,56.4-7.3c28.3-7.1,20-99-14.5-74.1c-28.8,20.8-45.6,23.5-45.6,23.5l-27.7-13.8
						c-10.9-5.4-22.6-9-34.6-10.4c-47.8-5.6-44.9,5.4-44.9,5.4c-2.1,11.2,1.9,12.8,10.7,16.5l37.4,15.7c5.2,2.2,6.4,9.2,2.2,13.1
						c-6.5,6-14,10.7-22.1,13.9c-14.7,5.8-40.4,15.2-66.9,21.2c-12.4,2.8-16.4,18.2-4.9,24l82.6,6.1c20.9,1.5,41.6-5.7,57.2-20.1
						L1369,949.3L1369,949.3z"/>
					<path d="M1302.4,985.4c-1.9,0-3.7-0.1-5.6-0.2l-82.6-6.1c-0.3,0-0.6-0.1-0.8-0.2c-5.7-2.8-8.7-8.1-7.9-14.1
						c0.8-6.8,6.2-12.4,13.4-14c26.9-6.1,53.3-15.8,66.6-21.1c7.9-3.1,15.1-7.7,21.4-13.5c1.4-1.3,2.1-3.3,1.7-5.2
						c-0.3-1.9-1.5-3.5-3.3-4.2l-37.4-15.7c-8.6-3.6-14.3-6-12.1-18.7c-0.1-0.8,0.1-2.3,1.5-3.9c4.8-5.5,20.2-6.7,46-3.7
						c12.2,1.4,24,5,35.3,10.6l27.1,13.5c3.3-0.8,19.2-5.1,44-23c9.2-6.6,16-5,20.2-2.5c12.5,7.6,17,33.4,14,53
						c-2.3,15.3-8.8,25.3-17.8,27.6c-33,8.3-51.7,7.8-56.2,7.5l-14.1,12.9C1341.1,978,1321.9,985.4,1302.4,985.4L1302.4,985.4z
						 M1215.1,974.7l82.1,6c20.2,1.5,40.4-5.6,55.6-19.6l14.8-13.6c0.5-0.4,1.1-0.6,1.7-0.6c0.2,0,19.1,1.8,55.6-7.3
						c7.2-1.8,12.5-10.5,14.5-24c2.8-18.2-1.4-42-11.9-48.5c-4.3-2.7-9.5-1.9-15.2,2.3c-28.9,20.9-45.8,23.8-46.5,23.9
						c-0.5,0.1-0.9,0-1.3-0.2l-27.7-13.8c-10.8-5.4-22.2-8.8-33.8-10.2c-33.8-4-40.8,0.6-42.1,2.2c0,0-0.4,0.5-0.4,0.5
						c0.1,0.3,0.1,0.6,0,1c-1.7,9.4,0.6,10.4,9.4,14.1l37.4,15.7c3.1,1.3,5.3,4.1,5.9,7.5c0.6,3.5-0.5,6.9-3.1,9.3
						c-6.7,6.2-14.4,11.1-22.8,14.4c-16.4,6.5-41.4,15.4-67.2,21.3c-6.2,1.4-9.4,6.2-9.9,10.2
						C1209.5,969.3,1211.3,972.7,1215.1,974.7L1215.1,974.7z"/>
				</g>
				<g>
					<g>
						<path class="st0" d="M576.9,274.6c1.8-5.5,7.2-8.7,12.7-7.5c15.2,3.3,93.2,20.5,107.8,23.8s15.1,19.5,23.4,34.4
							c7.2,12.9,32,60.2,59.1,93.1c8.2,9.9,9.3,24.2,3,35.4c-3.6,6.5-8.3,12.8-13.8,16.6c-14.1,9.6-24.7,21.1-53-46.6
							c-1.7-4.1-4.6-7.7-8.4-10.1c-5.3-3.5-13.6-9.8-21.7-19.4c0,0-47.5,58-59.6-59.7c-1.1-10.5,3.6-20.6,12.4-25.8
							c0.7-0.4,1.4-0.8,2.2-1.2l-56.9-18.2C578.1,287.4,574.9,280.7,576.9,274.6L576.9,274.6z"/>
						<path d="M753.8,480c-1.2,0-2.5-0.2-3.8-0.5c-10.5-3.1-21.3-19.5-36.1-54.8c-1.6-3.8-4.2-6.9-7.5-9.1
							c-5.2-3.4-12.8-9.2-20.5-17.9c-4.5,4.8-17.2,16.3-30.6,12.3c-16-4.8-26.5-30.1-31.2-75.1c-1.1-10.6,3.3-20.8,11.5-26.6
							l-52.2-16.7c-3.4-1.1-6.1-3.5-7.8-6.7c-1.7-3.3-2-7.3-0.8-10.8l0,0c2.2-6.5,8.7-10.4,15.2-9c25.4,5.6,94.4,20.8,107.8,23.8
							c11.3,2.6,15,12.1,19,22.3c1.7,4.3,3.4,8.8,5.9,13.2c0.8,1.4,1.8,3.2,3,5.4c9.5,17.4,31.9,58.2,55.9,87.4
							c8.7,10.6,10,25.8,3.2,37.9c-4.5,8-9.4,13.9-14.4,17.3l-1.9,1.3C763.8,476.7,759.1,480,753.8,480L753.8,480z M685.9,392
							c0.7,0,1.3,0.3,1.7,0.8c7.8,9.3,15.8,15.4,21.2,19c4.1,2.7,7.3,6.6,9.2,11.1c13.8,33.1,24.4,49.7,33.2,52.3
							c5,1.4,9.4-1.7,14.6-5.3l1.9-1.3c4.5-3.1,8.9-8.4,13.1-15.8c5.9-10.5,4.8-23.8-2.7-32.9c-24.2-29.5-46.7-70.6-56.3-88.1
							c-1.2-2.2-2.2-4-3-5.4c-2.6-4.6-4.4-9.2-6.1-13.7c-3.8-9.8-6.8-17.5-15.8-19.5c-13.4-3-82.3-18.2-107.7-23.8
							c-4.3-1-8.6,1.6-10.1,6c-0.8,2.5-0.6,5.1,0.5,7.4c1.1,2.2,2.9,3.8,5.2,4.5l56.9,18.2c0.8,0.3,1.5,1,1.5,1.9
							c0.1,0.9-0.4,1.7-1.2,2.2c-0.7,0.4-1.5,0.8-2.1,1.2c-7.9,4.6-12.3,13.9-11.3,23.6c5.5,53.7,18.3,68.4,28,71.3
							c13.6,4.1,27.5-12.6,27.7-12.8C684.6,392.3,685.2,392,685.9,392L685.9,392L685.9,392z"/>
					</g>
					<path d="M696.8,369.9c-0.4,0-0.8-0.1-1.1-0.3c-3.8-2.2-10.7-7.1-13.5-9.1c-15.4-11-23.9-22-27.7-27.5
						c-2.6-3.9-3.9-8.2-3.8-12.6c0.2-8.2,5.4-10,7.9-10.9c9.1-3.2,23.8,5.6,25.4,6.6c1,0.6,1.4,2,0.7,3.1c-0.7,1-2,1.4-3.1,0.7
						c-4-2.4-15.6-8.3-21.6-6.2c-2.4,0.8-4.8,1.7-4.9,6.8c-0.1,3.4,1,6.9,3.1,10c3.6,5.3,11.8,15.8,26.6,26.4
						c2.2,1.5,9.5,6.7,13.2,8.9c1.1,0.6,1.4,2,0.8,3C698.3,369.5,697.5,369.9,696.8,369.9L696.8,369.9z"/>
					<path d="M686.5,397.2c-0.6,0-1.2-0.2-1.6-0.7c-12.6-13.4-11.8-27.6-11.8-28.2c0.1-1.2,1.1-2.1,2.4-2.1c1.2,0.1,2.2,1.1,2.1,2.4
						c0,0.2-0.6,13,10.6,24.9c0.8,0.9,0.8,2.3-0.1,3.1C687.7,397,687.1,397.2,686.5,397.2L686.5,397.2z"/>
				</g>
			</g>
			<g>
				<g>
					<g>
						<path class="st0" d="M1433.9,437.7l-5.2-139.2l-97.6,51.3l1.1,88c0.7,19.6,16.8,30.5,16.8,30.5c19.9,15.2,47.9,12.4,68.2-2.2
							l4.7-3.4C1429.8,457.1,1434.3,447.6,1433.9,437.7L1433.9,437.7z"/>
						<path d="M1380.2,480.7c-11.8,0-23.2-3.5-32.5-10.7c-0.6-0.4-16.9-11.7-17.7-32.2l-1.1-88c0-0.8,0.4-1.6,1.2-2l97.6-51.3
							c0.7-0.4,1.5-0.3,2.2,0s1.1,1.1,1.1,1.8l5.2,139.2c0.5,10.7-4.3,20.8-12.9,26.9l-4.7,3.4
							C1406.7,476.4,1393.2,480.7,1380.2,480.7L1380.2,480.7z M1333.3,351.1l1.1,86.6c0.7,18.1,15.7,28.6,15.8,28.7
							c18.2,13.9,44.6,13,65.7-2.2l4.7-3.4c7.3-5.3,11.4-13.9,11-23.1v0l-5-135.6L1333.3,351.1L1333.3,351.1z"/>
					</g>
					<path d="M1286.8,139.1c26.1-1.6-6.7,26,89.7-2.9c38.4-11.5,19,34.6,28.9,31.6c36.8-10.9,35.5-10.6,53.5-5.8
						c11.9,3.2,19.6,25.8,17.4,42.6c-2.9,22.2-20.8,28-36.6,75c-11.1,33-8.4,53.1-21.2,57.9c-13,4.9-22.6-13.1-37.2-8.9
						c-18.9,5.5-15.2,39.1-33.5,53c-11.6,8.8-38.6,12.9-81.8-8.7c-7-3.5-10.6-11.7-8.5-19.5c2.7-9.9,6.1-22.5,10.3-34.2
						c20.2-55.8,39.5-68.4,32.5-82.8c-10.7-22.1-51.4-9.4-58.2-27.6C1235.1,190.1,1251.1,141.3,1286.8,139.1L1286.8,139.1z"/>
					<g>
						<path class="st0" d="M1377.8,235.1l-7.5,14.3c-3.5,6.8-6.6,13.7-9.1,20.9c-4.8,13.5-14,36.2-19,49.1
							c-16.1,41.4-65.6-4.1-65.6-4.1l-3.4-11.4l-6.7-2.8c-1.3-0.5-2.5-1.4-3.3-2.5c-2.1-2.8-2.1-6.6-0.3-9.3
							c9.9-15.1,30.7-49,38.1-79.5C1300.9,209.9,1343.4,198.6,1377.8,235.1L1377.8,235.1z"/>
						<path d="M1319.8,339.1c-20.5,0-43.7-21.1-44.7-22.1c-0.3-0.3-0.5-0.6-0.6-1l-3.1-10.4l-5.7-2.4c-1.8-0.7-3.2-1.8-4.2-3.2
							c-2.6-3.5-2.8-8.3-0.4-11.9c8.9-13.5,30.3-48.2,37.8-78.8c0.2-0.8,0.8-1.4,1.6-1.6c0.4-0.1,44.2-11.2,79.1,25.8
							c0.7,0.7,0.8,1.7,0.3,2.6l-7.5,14.3c-3.4,6.6-6.5,13.6-9,20.6c-3.5,9.8-9.4,24.7-14.1,36.7c-1.8,4.6-3.5,9-4.9,12.5
							c-3.9,10.1-10.2,16.2-18.5,18.2C1323.8,338.9,1321.8,339.1,1319.8,339.1L1319.8,339.1z M1278.5,314.2
							c3.6,3.2,28.2,24.1,46.2,20c6.8-1.6,12-6.8,15.3-15.4c1.4-3.5,3.1-7.9,4.9-12.5c4.7-12,10.6-26.8,14.1-36.5
							c2.6-7.2,5.7-14.4,9.3-21.2l6.7-12.9c-29.6-30.4-65.3-25.1-72.3-23.7c-7.6,29.8-27.1,62.1-38.1,78.8c-1.3,2.1-1.3,4.8,0.2,6.8
							c0.6,0.7,1.4,1.3,2.4,1.8l6.7,2.8c0.6,0.3,1.1,0.8,1.3,1.4L1278.5,314.2L1278.5,314.2z"/>
					</g>
					<path class="st0" d="M1367.2,285.1c0,0,17.9-34.5,31.3-22.7C1412,274.1,1391.4,311.5,1367.2,285.1z"/>
				</g>
				<g>
					<path d="M1301,291c-3.8,0-6.9-1.2-9.5-3.6c-4.7-4.5-6.7-13-6-25.4c0.5-9.5,3.2-15.2,8.2-17.4c3.7-1.6,7.5-1.7,10.9-0.3
						c2.8,1.2,4.9,3.3,5.8,5.7c5.9,15.8,3.5,28.7-0.8,35.6c-2,3.2-4.5,5.2-6.9,5.4C1302.1,291,1301.6,291,1301,291L1301,291z
						 M1299.7,247.7c-1.3,0-2.8,0.3-4.1,0.9c-3.3,1.4-5.1,5.9-5.5,13.6c-0.6,10.9,1,18.5,4.6,22c1.9,1.9,4.5,2.6,7.7,2.3
						c0.8-0.1,2.2-1.1,3.6-3.3c3.6-5.7,5.8-17.4,0.4-31.7c-0.5-1.3-1.8-2.5-3.4-3.2C1301.9,247.9,1300.8,247.7,1299.7,247.7
						L1299.7,247.7z M1294.6,246.5L1294.6,246.5z"/>
					<path d="M1383.4,258.3c-0.1,0-0.2,0-0.3,0l-81.5-10.6c-1.2-0.2-2.1-1.3-1.9-2.5c0.2-1.2,1.3-2.1,2.5-1.9l81.5,10.6
						c1.2,0.2,2.1,1.3,1.9,2.5C1385.4,257.5,1384.5,258.3,1383.4,258.3z"/>
					<path d="M1265.4,282.3c-0.3,0-0.7-0.1-1-0.2c-2.3-1.1-4-5.5-4.8-8c-2.5-7.9-3.3-19.5,1.8-28.5c1.7-3,4.2-4.9,7.3-5.4
						c7.7-1.5,16.7,5.8,17.1,6.1c0.9,0.8,1.1,2.2,0.3,3.1c-0.8,0.9-2.2,1.1-3.1,0.3c-2.2-1.7-8.8-6.1-13.5-5.2
						c-1.8,0.3-3.2,1.4-4.2,3.3c-6.8,12.1-1,28.8,1.2,30.4c1.1,0.5,1.5,1.8,1,2.9C1267.1,281.8,1266.2,282.3,1265.4,282.3
						L1265.4,282.3z"/>
				</g>
			</g>
		</g>
		<g>
			<circle class="st0" cx="754.3" cy="1100.5" r="61.7"/>
			<g>
				<g>
					<circle class="st0" cx="955.9" cy="1100.5" r="61.7"/>
					<path d="M955.9,1164.4c-35.2,0-63.9-28.7-63.9-63.9s28.7-63.9,63.9-63.9s63.9,28.7,63.9,63.9S991.1,1164.4,955.9,1164.4z
						 M955.9,1041c-32.8,0-59.5,26.7-59.5,59.4s26.7,59.4,59.5,59.4s59.5-26.7,59.5-59.4S988.7,1041,955.9,1041z"/>
				</g>
				<path class="st1" d="M935.4,1124.3v-47.7c0-2.4,2.6-4,4.7-2.9l47.7,23.6c2.4,1.2,2.5,4.7,0,5.9l-47.7,24.2
					C938,1128.4,935.4,1126.8,935.4,1124.3z"/>
			</g>
			<g>
				<g>
					<circle class="st0" cx="1157.6" cy="1100.5" r="61.7"/>
					<path d="M1157.6,1164.4c-35.2,0-63.9-28.7-63.9-63.9s28.7-63.9,63.9-63.9s63.9,28.7,63.9,63.9S1192.8,1164.4,1157.6,1164.4z
						 M1157.6,1041c-32.8,0-59.4,26.7-59.4,59.4s26.7,59.4,59.4,59.4s59.4-26.7,59.4-59.4S1190.3,1041,1157.6,1041z"/>
				</g>
				<g>
					<path d="M1177.8,1122.9c-0.6,0-1.1-0.2-1.6-0.7l-41.2-41.2c-0.9-0.9-0.9-2.3,0-3.1c0.9-0.9,2.3-0.9,3.1,0l41.2,41.2
						c0.9,0.9,0.9,2.3,0,3.1C1178.9,1122.6,1178.4,1122.9,1177.8,1122.9L1177.8,1122.9z"/>
					<path d="M1136.6,1122.9c-0.6,0-1.1-0.2-1.6-0.7c-0.9-0.9-0.9-2.3,0-3.1l41.2-41.2c0.9-0.9,2.3-0.9,3.1,0c0.9,0.9,0.9,2.3,0,3.1
						l-41.2,41.2C1137.8,1122.6,1137.2,1122.9,1136.6,1122.9L1136.6,1122.9z"/>
				</g>
			</g>
		</g>
		<path d="M862.6,855.8c-0.7,0-1.5-0.4-1.9-1c-0.7-1-0.4-2.4,0.7-3.1l109.2-70.2c1-0.7,2.4-0.4,3.1,0.7c0.7,1,0.4,2.4-0.7,3.1
			l-109.2,70.2C863.5,855.7,863,855.8,862.6,855.8L862.6,855.8z"/>
		<path d="M717.6,949c-0.7,0-1.5-0.4-1.9-1c-0.7-1-0.4-2.4,0.7-3.1l98.8-63.5c1-0.7,2.4-0.4,3.1,0.7c0.7,1,0.4,2.4-0.7,3.1
			l-98.8,63.5C718.5,948.9,718,949,717.6,949L717.6,949z"/>
		<path d="M812.1,965c-0.7,0-1.5-0.4-1.9-1c-0.7-1-0.4-2.4,0.7-3.1l254.1-163.4c1-0.7,2.4-0.4,3.1,0.7c0.7,1,0.4,2.4-0.7,3.1
			L813.3,964.6C812.9,964.9,812.5,965,812.1,965L812.1,965z"/>
	</g>
	<g>
		<g>
			<g>
				<path class="st0" d="M512.2,1425.5l-311.5-3.1c-56.3,0-104.5-36.8-114.4-92.8L33,1027.1c-6.4-36,21.1-69.1,57.4-69.1h203.2
					L512.2,1425.5L512.2,1425.5z"/>
				<path d="M512.2,1427.7L512.2,1427.7l-311.5-3.1c-58.8,0-106.7-38.9-116.5-94.6l-53.3-302.5c-3.2-18,1.7-36.2,13.4-50.1
					c11.5-13.7,28.3-21.6,46.2-21.6h203.2c0.9,0,1.6,0.5,2,1.3l218.6,467.5c0.3,0.7,0.3,1.5-0.1,2.1
					C513.6,1427.3,512.9,1427.7,512.2,1427.7L512.2,1427.7z M90.4,960.2c-16.5,0-32.1,7.3-42.8,20c-10.8,12.9-15.4,29.9-12.4,46.5
					l53.3,302.5c9.4,53.5,55.6,90.9,112.2,90.9l308,3.1l-216.5-463L90.4,960.2L90.4,960.2z"/>
			</g>
			<polygon points="326.4,1795.4 275.1,1795.4 275.1,1421.9 326.4,1423.8 			"/>
			<path d="M421.8,1732.9H191.2c-36,0-65.1,29.2-65.1,65.1h360.7C486.9,1762.1,457.7,1732.9,421.8,1732.9z"/>
			<path d="M117.3,1193.8c-1.1,0-2-0.8-2.2-1.8l-25.8-146.9c-0.2-1.2,0.6-2.4,1.8-2.6c1.2-0.2,2.4,0.6,2.6,1.8l25.8,146.9
				c0.2,1.2-0.6,2.4-1.8,2.6C117.5,1193.8,117.4,1193.8,117.3,1193.8L117.3,1193.8z"/>
		</g>
		<g>
			<path d="M410.3,714.1c20.5-1.8,34.8,16.8,46.2,45.1c9.4,23.1,5.7,42.3-7,54.9c-40.9,40.9-85.2,159-145.8,194.9
				c-48.4,28.7-149.6,23.3-196.3-36.1c-44.5-56.5-51.2-138.3-0.9-175.1c45.2-33.1,87.3,23.6,135.3-7.2
				c47.3-30.3,46.6-55.5,74.6-70.3C346.5,704.6,352.3,719.3,410.3,714.1L410.3,714.1z"/>
			<g>
				<g>
					<path class="st0" d="M702,1613.2c-0.4,1.8,20.4,97.2,20.4,97.2l-47.9-8l-14.4-80.7L702,1613.2L702,1613.2z"/>
					<path d="M722.4,1712.6c-0.1,0-0.2,0-0.4,0l-47.9-8c-0.9-0.2-1.7-0.9-1.8-1.8l-14.4-80.7c-0.2-1.2,0.6-2.3,1.8-2.6l41.9-8.5
						c0.8-0.2,1.5,0.1,2,0.6c0.4,0.4,0.7,1.1,0.6,1.7c0.3,4,12.3,59.8,20.4,96.6c0.2,0.7,0,1.5-0.6,2
						C723.6,1712.3,723,1712.6,722.4,1712.6L722.4,1712.6z M676.4,1700.4l43.1,7.2c-14.2-65.2-18.3-85.4-19.4-91.8l-37.6,7.6
						L676.4,1700.4L676.4,1700.4z"/>
				</g>
				<g>
					<g>
						<path class="st0" d="M697,1679.1c2.9-2.5,7.1-4.9,12.5-5.1c8-0.3,15.4,4.7,18.7,12.1c8.3,18.5,30.2,69.9,36.4,112
							c2.2,14.9-9,26.9-26.5,17.2c-28.6-16-68.4-52.6-89.2-106.7c-2.4-6.2-1.5-13.2,2.4-18.6c3.2-4.4,7.5-9.7,12.6-14.2
							c4.8-4.3,12.1-4.4,17.1-0.3l4.5,3.7C688.8,1681.9,693.6,1681.9,697,1679.1L697,1679.1z"/>
						<path d="M749.8,1821c-3.5,0-7.8-1-12.9-3.8c-30-16.7-69.4-53.8-90.2-107.9c-2.7-7-1.7-14.8,2.7-20.7
							c4.2-5.8,8.5-10.6,12.9-14.5c5.7-5.1,14-5.2,20-0.3l4.5,3.7c2.5,2.1,6.2,2.1,8.7-0.1c4.1-3.5,8.9-5.4,13.8-5.6
							c8.7-0.4,17,5,20.8,13.4c8.9,19.9,30.4,70.6,36.6,112.6c1.3,8.6-1.6,16.4-7.4,20.4C757.4,1819.4,754.2,1821,749.8,1821
							L749.8,1821z M672.5,1674.6c-2.6,0-5.1,0.9-7.2,2.8c-4.1,3.7-8.3,8.4-12.3,13.9c-3.5,4.7-4.2,10.9-2.1,16.5
							c20.3,52.9,58.9,89.3,88.2,105.6c6.9,3.8,13.2,4.3,17.7,1.2c4.4-3.1,6.6-9.2,5.5-16.1c-6.1-41.4-27.4-91.7-36.2-111.4
							c-3-6.7-9.7-11.1-16.6-10.8c-4,0.2-7.7,1.7-11.1,4.6c-4.2,3.5-10.2,3.5-14.4,0.1l-4.5-3.7
							C677.4,1675.5,674.9,1674.6,672.5,1674.6L672.5,1674.6z"/>
					</g>
					<path d="M753.6,1804.2c-3.8,0-44.2-2.4-93.2-99.2c-0.5-1.1-0.1-2.4,1-3c1.1-0.6,2.4-0.1,3,1c49.1,97.1,88.9,96.8,89.3,96.8
						c1.3-0.1,2.3,0.9,2.3,2.1c0,1.2-0.9,2.3-2.1,2.3C753.8,1804.2,753.7,1804.2,753.6,1804.2L753.6,1804.2z"/>
					<path d="M722.9,1750.9c-0.9,0-1.7-0.5-2.1-1.4c-0.5-1.1,0.1-2.4,1.2-2.9l22.7-9c1.2-0.4,2.4,0.1,2.9,1.2s-0.1,2.4-1.2,2.9
						l-22.7,9C723.5,1750.9,723.2,1750.9,722.9,1750.9L722.9,1750.9z"/>
					<path d="M715,1733.5c-0.9,0-1.7-0.5-2.1-1.4c-0.5-1.1,0.1-2.4,1.3-2.9l26.7-10.4c1.1-0.4,2.4,0.1,2.9,1.3
						c0.4,1.1-0.1,2.4-1.3,2.9l-26.7,10.4C715.5,1733.5,715.2,1733.5,715,1733.5z"/>
				</g>
				<g>
					<path class="st0" d="M497.5,1612.9c-0.4,0.7-3,11.9-5.1,30.8c-3.5,31.4,31.7,60.6,31.7,60.6l-83.4-11.2l3.2-72.8L497.5,1612.9z
						"/>
					<path d="M524.1,1706.5c-0.1,0-0.2,0-0.3,0l-83.4-11.2c-1.1-0.2-2-1.2-1.9-2.3l3.2-72.8c0-1.1,0.9-2,1.9-2.1l53.5-7.3
						c0.8-0.1,1.6,0.2,2.1,0.9c0.5,0.6,0.5,1.5,0.2,2.2c-0.5,1.4-3,12.8-4.9,30.2c-3.3,29.9,30.6,58.3,30.9,58.6
						c0.8,0.6,1,1.7,0.6,2.6C525.8,1706,525,1706.5,524.1,1706.5L524.1,1706.5z M443.1,1691.1l74.3,10c-9.9-9.7-30-32.7-27.2-57.7
						c1.5-13.2,3.2-22.9,4.3-27.9l-48.4,6.7L443.1,1691.1L443.1,1691.1z"/>
				</g>
				<g>
					<g>
						<path class="st0" d="M460,1671.9c4.9-1.6,3.8-9.2,7.8-12.7c6-5.4,13.6-5.3,20.8-1.6c18,9.1,67.1,35.1,98.1,63.9
							c11,10.2,9.8,26.7-9.9,30.2c-32.2,5.8-85.9,2.6-135.9-26.2c-5.7-3.3-9.5-9.3-9.8-16c-0.2-5.4,0-23.5,1.1-30.2
							c1-6.4,6.6-11.1,13.1-11.1h5.8C455.6,1668.2,455.8,1673.3,460,1671.9L460,1671.9z"/>
						<path d="M547.6,1756.3c-31.5,0-70.7-7.6-107.8-29c-6.5-3.7-10.5-10.4-10.9-17.8c-0.2-5.6,0-23.7,1.1-30.6
							c1.2-7.5,7.6-12.9,15.2-12.9h5.9c3,0,4.6,1.7,5.8,2.8c1.2,1.2,1.4,1.3,2.2,1c1.5-0.5,2.2-2.2,3.1-5c0.8-2.5,1.7-5.3,3.9-7.3
							c6.3-5.6,14.6-6.3,23.2-2c19.4,9.8,67.7,35.6,98.6,64.2c6.3,5.8,9,13.7,7,20.5c-1.2,4-5.1,11.2-18,13.5
							C568.6,1755.4,558.6,1756.3,547.6,1756.3L547.6,1756.3z M445.4,1670.4c-5.4,0-10,3.9-10.9,9.2c-1.1,6.6-1.3,24.4-1.1,29.7
							c0.3,5.9,3.5,11.2,8.6,14.1c48.8,28.2,101.4,31.9,134.3,26c7.8-1.4,13-5.1,14.5-10.4c1.5-5.2-0.7-11.3-5.8-16
							c-30.5-28.3-78.5-53.8-97.6-63.5c-4.9-2.5-12-4.2-18.3,1.3c-1.3,1.2-2,3.2-2.6,5.3c-1,3.1-2.1,6.6-5.9,7.9
							c-3.5,1.2-5.5-0.8-6.8-2.1c-1-1-1.6-1.5-2.7-1.5L445.4,1670.4L445.4,1670.4z"/>
					</g>
					<path d="M546.8,1741.7c-21,0-52.8-5.7-99-26.4c-1.1-0.5-1.6-1.8-1.1-2.9s1.8-1.6,2.9-1.1c98.7,44.2,129.4,18.7,129.7,18.4
						c0.9-0.8,2.3-0.7,3.1,0.2c0.8,0.9,0.7,2.3-0.2,3.1C581.6,1733.6,571.8,1741.7,546.8,1741.7L546.8,1741.7z"/>
					<path d="M523.6,1711.7c-0.4,0-0.7-0.1-1.1-0.3c-1.1-0.6-1.5-2-0.8-3l12.1-21.4c0.6-1.1,2-1.4,3-0.8c1.1,0.6,1.5,2,0.8,3
						l-12.1,21.4C525.1,1711.3,524.4,1711.7,523.6,1711.7z"/>
					<path d="M506.5,1703.3c-0.4,0-0.8-0.1-1.2-0.3c-1-0.6-1.4-2-0.7-3.1l13.6-22.3c0.6-1.1,2-1.4,3.1-0.7c1,0.6,1.4,2,0.7,3.1
						l-13.6,22.3C508,1702.9,507.3,1703.3,506.5,1703.3z"/>
				</g>
				<path d="M271.6,1246c0,0,291.9-12.7,323.8,17c43.3,40.2,117.6,374.8,117.6,374.8l-71.8,20.1c0,0-108.2-274.6-135-274.6
					s-279.5-9-279.5-9L271.6,1246z"/>
				<path d="M214.1,1236.8c0,0-38.5,113-7.9,133.6s251.4,18.9,243.8,16.3c-7.7-2.6-19.7,185-19.7,257.2l69.5,2.7
					c0,0,110.8-290.1,98.8-322.5c-21.4-57.9-182.4-77.5-235.1-85.3C352.8,1237.2,214.2,1236.8,214.1,1236.8L214.1,1236.8z"/>
				<path class="st0" d="M562,1483.7c-0.2,0-0.5,0-0.7-0.1c-1.2-0.4-1.8-1.6-1.4-2.8c2.5-7.8,5-15.5,7.4-23
					c19.5-60.1,36.3-112,29.3-133c-14.8-44.6-125.2-61.7-161.5-67.3c-1.2-0.2-2-1.3-1.9-2.5c0.2-1.2,1.3-2.1,2.5-1.9
					c64.1,9.9,151,28,165.1,70.3c7.4,22.4-8.8,72.4-29.3,135.8c-2.4,7.5-4.9,15.2-7.4,23C563.8,1483,562.9,1483.7,562,1483.7
					L562,1483.7z"/>
			</g>
			<g>
				<g>
					<g>
						<path class="st0" d="M248.8,894.2c0,0,1-18.6-10.5,175.6c0,0,7.9,150.3,8.9,167.2c1,16.9,147.9,9.6,147.9,9.6
							c17.4-76.2,15.5-163.7,3.4-257.1l25.2-2.2l1.8-58.7c-4.6-17.3-23.8-29.7-36.7-34.3C354.3,878.7,293.2,883.7,248.8,894.2
							L248.8,894.2z"/>
						<path d="M329.1,1250.4c-2.5,0-5.1,0-7.6,0c-75.8-0.6-76.3-9.4-76.5-13.2c-1-16.8-8.8-165.7-8.9-167.2c0-0.1,0-0.2,0-0.2
							c4.8-81.5,7.4-125.5,8.9-149.1c0.7-11.8,1.1-18.6,1.4-22.3c0.1-1.6,0.2-2.8,0.3-3.8c0-0.1,0-0.2,0-0.3l0-0.4h0.1
							c0.3-2,0.8-2.2,2.3-2.2c0.2,0,0.5,0,0.8,0.2c42.6-9.9,104.2-15.6,139.9,0.5c15.1,5.4,33.5,18.9,38,35.8c0,0.2,0.1,0.4,0.1,0.6
							l-1.8,58.7c0,1.1-0.9,2-2,2.2l-22.9,2c13.2,103.1,12,186.8-3.7,255.6c-0.2,1-1.1,1.7-2.1,1.7
							C394.9,1248.8,363,1250.4,329.1,1250.4L329.1,1250.4z M240.5,1069.8c0.3,5.1,7.9,150.6,8.9,167.1c0.1,0.9,2.5,8.5,72.1,9.1
							c32,0.2,64.2-1.1,71.8-1.5c15.3-68.5,16.3-151.8,3-254.7c-0.1-0.6,0.1-1.2,0.5-1.7s0.9-0.8,1.5-0.8l23.2-2.1l1.7-56.4
							c-4.2-15.2-21.2-27.5-35.2-32.5c-34.8-15.6-95.1-10-137.1-0.3C250.4,903.4,248.4,935.7,240.5,1069.8L240.5,1069.8z"/>
					</g>
					<path d="M336.6,1056.6c-0.8,0-1.6-0.4-2-1.2c-0.6-1.1-0.2-2.4,0.9-3c35-18.4,37.3-70.3,37.3-70.8c0-1.2,1-2.2,2.3-2.1
						c1.2,0,2.2,1.1,2.1,2.3c-0.1,2.2-2.5,54.9-39.7,74.6C337.2,1056.5,336.9,1056.6,336.6,1056.6L336.6,1056.6z"/>
					<g>
						<path class="st0" d="M273.6,891.6c0,0-35.4-4.1-58.2,27c-22.6,30.9-25.4,66.2-21.1,94.5c7.2,48.1,37.5,102.8,36.1,117.8
							c-0.7,7.2-8.4,58.8-37.5,105c-24,38-22.9,121.9-18.3,124.6c31.6,18.4,83.3,55.7,144.9,60.2c11.4,0.8,20.7-5.1,22.3-14.3
							c6.6-36.8,24.2-143.6,26.9-243.8c2.3-86.8-59.5-218.6-62.2-229.9C299.9,905.2,273.6,891.6,273.6,891.6L273.6,891.6z"/>
						<path d="M321.7,1422.9c-0.8,0-1.5,0-2.3-0.1c-53.3-3.8-98.2-31.4-131-51.5c-5.3-3.2-10.3-6.3-14.8-8.9c-1-0.6-1.6-1.7-2.2-3.8
							c-3.4-13.8-2.8-88.2,19.7-123.8c30.8-48.9,37.1-103.5,37.1-104c0.6-6.1-5.2-21-11.9-38.2c-9-23.2-20.1-52-24.2-79
							c-3.8-25.2-3.2-62.4,21.5-96.1c23.3-31.8,59.9-28,60.2-27.9c0.3,0,0.5,0.1,0.8,0.2c1.1,0.6,27.3,14.4,34,42.5
							c0.5,1.9,3,8.2,6.5,16.9c17.2,42.5,57.6,142.2,55.8,213.6c-2.6,99.2-19.7,203.8-26.9,244.1
							C342.3,1416.5,333.3,1423,321.7,1422.9L321.7,1422.9z M176.1,1358.7c4.5,2.6,9.4,5.6,14.6,8.8c32.4,19.9,76.8,47.1,129,50.8
							c10.3,0.7,18.5-4.4,20-12.4c7.2-40.3,24.2-144.6,26.8-243.5c1.9-70.5-39.8-173.2-55.4-211.8c-3.9-9.5-6.2-15.3-6.7-17.5
							c-5.9-24.3-28.3-37.6-31.4-39.4c-3.9-0.3-35.3-1.7-55.7,26.2c-23.8,32.5-24.4,68.4-20.7,92.8c4,26.6,15.1,55.1,23.9,78.1
							c7.4,19.2,12.8,33.1,12.1,40.2c-1.3,14-11.1,63.5-37.8,106C171.4,1274.2,172.9,1352.4,176.1,1358.7L176.1,1358.7z"/>
					</g>
				</g>
				<g>
					<g>
						<path class="st0" d="M565.5,1161.5c-40.9-15.9-113.3-82.1-132.9-134.9l-1.9-91.8c-2.2-14.5-7.3-20.3-19.4-28.4
							c-4.7-3.2-12.9-6.7-19.5-8.1c0,0-3.4-2-4.2,16.8c-0.4,9.1,11.3,110.8,13.4,198c1.5,61-7.6,114.3-7,126
							c0,0.9,40.2,8.9,42.9,6.2l0.3-0.8l-2.3-112.3c22.6,19.7,65.7,53.6,99.9,52.4L565.5,1161.5L565.5,1161.5z"/>
						<path d="M433.1,1248c-12.1,0-39.2-6.5-39.5-6.6c-1.4-0.5-1.7-1.5-1.8-2.2c-0.2-4,0.6-12.4,1.8-23.9
							c2.5-24.4,6.2-61.2,5.2-102.1c-1.4-59.8-7.3-125.8-10.8-165.3c-1.7-18.6-2.7-29.8-2.5-32.8c0.6-14.6,2.8-17.6,4.6-18.6
							c0.9-0.5,1.8-0.5,2.4-0.3c7.2,1.5,15.6,5.3,20.2,8.4c12.2,8.1,18,14.4,20.3,29.9c0,0.1,0,0.2,0,0.3l1.9,91.4
							c19.1,51,89.3,116.9,131.5,133.2c0.8,0.3,1.3,1,1.4,1.8c0.1,0.8-0.2,1.6-0.9,2.1l-30.8,23.2c-0.4,0.3-0.8,0.4-1.3,0.4
							c-31,1.1-69.5-25.6-97.7-49.7l2.2,107.3c0,0.2,0,0.5-0.1,0.8l-0.3,0.8c-0.1,0.3-0.3,0.6-0.5,0.9
							C437.7,1247.7,435.7,1248,433.1,1248L433.1,1248z M396.2,1237.7c6.5,1.9,33,6.6,38.7,6l-2.3-111.3c0-0.9,0.5-1.7,1.3-2.1
							c0.8-0.4,1.7-0.2,2.4,0.3c39.5,34.5,73.3,52.4,97.7,51.8l27.1-20.4c-43.3-18.9-111.7-84.1-130.5-134.7
							c-0.1-0.2-0.1-0.5-0.1-0.7l-1.9-91.6c-2.1-13.7-6.6-18.9-18.4-26.7c-4.1-2.8-11.6-6.2-18.1-7.6c-0.5,1-1.8,4.3-2.2,14.6
							c-0.1,2.7,1,15.1,2.5,32.3c3.5,39.5,9.4,105.6,10.8,165.6c1,41.2-2.8,78.2-5.2,102.7C397,1225.9,396.2,1233.5,396.2,1237.7
							L396.2,1237.7z M435.7,1243.5L435.7,1243.5z M390.8,900.3L390.8,900.3z"/>
					</g>
					<g>
						<path class="st0" d="M513.3,1168.3c1.2-2.3,3.1-4.1,5.5-4.9c1.7-0.6,3.4-1.4,5-2.3l22.3-11.8c4.2-2.1,10.2,2.7,14.5,4.2
							c13.1,4.3,40.2,14.4,38,24c-2.4,10.3-25.7,5.4-34,3.3c-1.9-0.5-19,5.7-24.4,6.1c-7.5,0.6-9.2-1.3-12.9-3.3
							c-1.7-0.9-3.5-1.3-5.5-1.3c-3.1,0-6-1.3-8-3.7l0-0.1c-2.1-2.7-2.5-6.3-1-9.3L513.3,1168.3L513.3,1168.3z"/>
						<path d="M537.8,1189.2c-5.1,0-7.4-1.3-9.9-2.8c-0.5-0.3-1-0.6-1.5-0.9c-1.3-0.7-2.8-1-4.5-1c-3.8,0-7.4-1.7-9.7-4.6
							c-2.7-3.4-3.2-8-1.2-11.8l0.4-0.9c1.5-2.8,3.8-5,6.7-6c1.4-0.5,2.9-1.2,4.7-2.2l22.3-11.8c4-2,8.4,0.3,12.3,2.2
							c1.4,0.7,2.8,1.4,3.9,1.8c28.2,9.2,41.4,18.2,39.5,26.6c-0.5,2.4-2,4.2-4.2,5.6c-7.6,4.6-23.5,1.7-32.4-0.6
							c-1.2,0.1-5.9,1.5-9.3,2.5c-5.7,1.7-11.5,3.4-14.6,3.7C539.4,1189.1,538.6,1189.2,537.8,1189.2L537.8,1189.2z M548.5,1151
							c-0.5,0-0.9,0.1-1.3,0.3l-22.3,11.8c-2,1.1-3.7,1.8-5.3,2.4c-1.8,0.7-3.3,2-4.3,3.8l0,0l-0.4,0.9c-1.2,2.2-0.9,5,0.7,6.9
							c1.5,1.9,3.8,2.9,6.3,2.9c2.4,0,4.7,0.5,6.6,1.5c0.6,0.3,1.2,0.6,1.7,0.9c2.5,1.4,4.3,2.5,10,2.1c2.6-0.2,8.7-2,13.6-3.5
							c8-2.4,10.1-2.9,11.5-2.6c13.8,3.4,24.7,3.9,29.1,1.1c1.2-0.7,1.9-1.6,2.2-2.8c1.2-5.3-13.1-13.7-36.5-21.3
							c-1.5-0.5-3-1.2-4.5-2C553.1,1152.3,550.4,1151,548.5,1151L548.5,1151z M513.3,1168.3L513.3,1168.3z"/>
					</g>
				</g>
				<path class="st0" d="M305.9,1123.7c28.8,65.9,80.4,81.6,164.9,92.9l-9,24.9c-126.3,15.8-150.1-9.2-201.2-76.1L305.9,1123.7
					L305.9,1123.7z"/>
				<g>
					<path d="M243.2,1286.8c-8.9,0-18.8-1.8-29.6-6.1c-1.1-0.5-1.7-1.8-1.2-2.9c0.5-1.1,1.8-1.7,2.9-1.2
						c57.2,23.1,87.2-30.6,87.5-31.2c0.6-1.1,1.9-1.5,3-0.9c1.1,0.6,1.5,1.9,0.9,3C306.4,1248,284.8,1286.8,243.2,1286.8
						L243.2,1286.8z"/>
					<path d="M434.9,1128.3c-1.2,0-2.2-0.9-2.2-2.1l-3-84.5c0-1.2,0.9-2.3,2.1-2.3c1.3-0.1,2.3,0.9,2.3,2.1l3,84.5
						C437.2,1127.2,436.2,1128.2,434.9,1128.3C434.9,1128.3,434.9,1128.3,434.9,1128.3z"/>
					<path d="M391.5,1248.5c-31.1,0-46.2-6.6-66.6-15.5c-5-2.2-10.2-4.5-16.1-6.8c-16.9-6.8-29.2-17.3-39.7-34.1
						c-4.9-7.7-9-16-13.1-24c-3.6-7-7.2-14.3-11.4-21.1c-0.6-1.1-0.3-2.4,0.8-3.1s2.4-0.3,3.1,0.8c4.2,7,7.9,14.3,11.5,21.4
						c4,7.9,8.1,16.1,12.9,23.6c10,15.9,21.6,25.9,37.6,32.3c5.9,2.4,11.2,4.7,16.2,6.9c26.2,11.5,43.6,19.1,99.8,13
						c4.5-0.5,22.5-0.3,26.9-0.1c1.2,0.1,2.2,1.1,2.1,2.3c0,1.2-1.1,2.2-2.3,2.1c-4.2-0.2-22-0.3-26.2,0.1
						C413,1247.8,401.4,1248.5,391.5,1248.5L391.5,1248.5z"/>
					<path d="M468.9,1217.8c-0.1,0-0.1,0-0.2,0c-0.8-0.1-78.6-7.3-122.9-38.3c-13.2-9.2-19.8-29.7-26.8-51.3
						c-1.4-4.3-2.8-8.6-4.3-12.9c-0.4-1.2,0.2-2.4,1.4-2.8c1.2-0.4,2.4,0.2,2.8,1.4c1.5,4.3,2.9,8.7,4.3,13
						c6.7,20.9,13.1,40.6,25.1,49c43.4,30.3,120,37.4,120.8,37.5c1.2,0.1,2.1,1.2,2,2.4C471,1216.9,470.1,1217.8,468.9,1217.8
						L468.9,1217.8z"/>
				</g>
				<g>
					<path class="st0" d="M450.7,1228.2c1.2-2.3,3.1-4.1,5.5-4.9c1.7-0.6,3.4-1.4,5-2.3l22.3-11.8c4.2-2.1,10.2,2.7,14.5,4.2
						c13.1,4.3,40.2,14.4,38,24c-2.4,10.3-25.7,5.4-34,3.3c-1.9-0.5-19,5.7-24.4,6.1c-7.5,0.6-9.2-1.3-12.9-3.3
						c-1.7-0.9-3.5-1.3-5.5-1.3c-3.1,0-6-1.3-8-3.7l0-0.1c-2.1-2.7-2.5-6.3-1-9.3L450.7,1228.2L450.7,1228.2z"/>
					<path d="M475.2,1249.1c-5.1,0-7.4-1.3-9.9-2.8c-0.5-0.3-1-0.6-1.5-0.9c-1.3-0.7-2.8-1-4.5-1c-3.9,0-7.4-1.7-9.7-4.6
						c-2.7-3.4-3.2-8-1.2-11.8l0.4-0.9l0,0c1.5-2.8,3.8-5,6.7-6c1.4-0.5,2.9-1.2,4.7-2.2l22.3-11.8c4-1.9,8.4,0.3,12.3,2.2
						c1.4,0.7,2.8,1.4,3.9,1.8c28.2,9.2,41.4,18.2,39.5,26.6c-0.5,2.4-2,4.2-4.2,5.6c-7.6,4.6-23.5,1.7-32.4-0.6
						c-1.2,0.1-5.9,1.5-9.3,2.5c-5.7,1.7-11.5,3.4-14.6,3.7C476.9,1249,476,1249.1,475.2,1249.1L475.2,1249.1z M452.7,1229.2
						l-0.4,0.9c-1.1,2.2-0.9,5,0.7,6.9c1.5,1.9,3.8,2.9,6.3,2.9c2.4,0,4.6,0.5,6.6,1.5c0.6,0.3,1.2,0.6,1.7,0.9
						c2.5,1.4,4.4,2.5,10,2.1c2.6-0.2,8.7-2,13.6-3.5c8-2.4,10.1-2.9,11.5-2.6c13.7,3.4,24.6,3.9,29.1,1.1c1.2-0.7,1.9-1.6,2.2-2.8
						c1.2-5.3-13.1-13.7-36.5-21.3c-1.5-0.5-3-1.2-4.5-2c-3-1.5-6.4-3.2-8.3-2.2l-22.3,11.8c-2,1.1-3.7,1.8-5.3,2.4
						C455.1,1226,453.6,1227.4,452.7,1229.2L452.7,1229.2z"/>
				</g>
			</g>
			<g>
				<g>
					<path class="st0" d="M436,853.8c3.1-0.4,5.2-3.4,4.5-6.5c-4.2-19-2.6-51.6-3.2-50.7c-6.8,10-20.9-2.5-41-3.3
						c-12-0.5-16.6,6.6-18.4,12.4c-0.6,1.9-3.1,2.2-4.2,0.6c-2.9-4.5-7.9-8.4-15.4-1c-8.3,8.3-1.4,27.5,6.1,33.7
						c-1.8,2.1-30.4,32.9-52.3,56c-4.3,4.6-3.7,11.9,1.3,15.7l19.5,14.8c12.2,9.2,28.8,9.9,41.7,1.6l3-1.9c3.1-2,3.6-6.3,1.1-9
						l-5.9-6.3c-4.8-5.7-3.9-12.9-0.9-18.9l12-20.4c2.8,3.3,6.3,7.2,9.5,9.4c6.4,4.5,14.4,3.8,20.1-1.6c7.8-7.4,13.2-15.7,15.6-23.8
						L436,853.8L436,853.8z"/>
					<path d="M355,935.3c-8.3,0-16.5-2.6-23.4-7.8l-19.5-14.8c-2.9-2.2-4.7-5.5-5-9.2c-0.3-3.6,1-7.2,3.5-9.9
						c19.6-20.7,44.5-47.5,50.8-54.4c-4.8-5.2-8.6-14.4-9-22.1c-0.2-5.6,1.3-10.2,4.4-13.3c3.5-3.5,7-5.2,10.4-4.8
						c3.2,0.3,6,2.4,8.4,6.1c1.9-5.5,6.8-14.6,20.8-14c8.4,0.3,15.8,2.7,21.8,4.5c9.3,2.9,14.3,4.2,17.2-0.2
						c0.5-0.8,1.6-1.2,2.5-0.9c1.7,0.5,1.7,0.7,1.7,8.1c0,10,0,30.7,3,44.2c0.5,2,0,4.2-1.2,5.9c-1.2,1.8-3.1,2.9-5.2,3.2l-5.3,0.8
						c-2.8,8.1-8.2,16.2-15.8,23.4c-6.4,6.2-15.6,6.9-22.9,1.8c-2.3-1.6-4.9-4.1-7.9-7.4l-10.5,17.7c-1.8,3.5-4.2,10.6,0.6,16.3
						l5.8,6.2c1.7,1.8,2.5,4.2,2.2,6.6c-0.3,2.4-1.6,4.5-3.7,5.9l-3,1.9C369.5,933.3,362.2,935.3,355,935.3L355,935.3z M366.3,803.4
						c-1.9,0-4,1.2-6.3,3.5c-2.8,2.8-3.2,7-3.1,10c0.4,8.2,5,17,9.1,20.5c0.5,0.4,0.7,0.9,0.8,1.5c0,0.6-0.1,1.2-0.5,1.6
						c-1.8,2-29.9,32.4-52.4,56.1c-1.6,1.7-2.5,4.1-2.3,6.4s1.4,4.6,3.3,6l19.5,14.8c11.4,8.6,27.1,9.3,39.1,1.5l3-1.9
						c0.9-0.6,1.5-1.6,1.7-2.7c0.1-1.1-0.2-2.2-1-3l-5.9-6.3c-4.8-5.7-5.2-13.5-1.2-21.4l12.1-20.5c0.4-0.6,1-1,1.7-1.1
						c0.7-0.1,1.4,0.2,1.9,0.8c3.5,4.2,6.5,7.3,9,9c5.5,3.9,12.3,3.3,17.2-1.4c7.5-7.1,12.7-15,15.1-22.9c0.2-0.8,1-1.4,1.8-1.5
						l6.7-0.9c0.9-0.1,1.7-0.6,2.2-1.3c0.5-0.7,0.7-1.6,0.5-2.4c-3.1-14-3.1-35.1-3.1-45.2v-1.1c-4.8,2.5-11.2,0.6-18.4-1.7
						c-6-1.9-12.9-4-20.7-4.3c-8.4-0.3-13.9,3.3-16.1,10.9c-0.5,1.7-1.9,2.9-3.7,3.2c-1.8,0.2-3.5-0.5-4.5-2
						c-1.6-2.5-3.4-3.9-5.1-4.1C366.5,803.4,366.4,803.4,366.3,803.4L366.3,803.4z M436,853.8L436,853.8z"/>
				</g>
				<g>
					<path class="st0" d="M380.2,865.4l3.9,5.4L380.2,865.4z"/>
					<path d="M384.1,873c-0.7,0-1.4-0.3-1.8-0.9l-3.9-5.4c-0.7-1-0.5-2.4,0.5-3.1c1-0.7,2.4-0.5,3.1,0.5l3.9,5.4
						c0.7,1,0.5,2.4-0.5,3.1C385,872.9,384.5,873,384.1,873z"/>
				</g>
			</g>
		</g>
		<g>
			<path class="st1" d="M572.1,1237.9l67.7-199.4c4.1-6.2,11.1-10,18.7-10h180.3c8.2,0,13.5,7.9,10.8,15c-1.1,2.8-2.2,5.6-3.1,8.4
				l-61.1,186.4h0c-0.2,10.9-9.1,19.7-20,19.7H432.5c-11.1,0-20-9-20-20L572.1,1237.9L572.1,1237.9z"/>
			<path class="st0" d="M706.1,1130.7c-2.5,8.4,1.3,17.1,8.7,19.3c7.3,2.2,15.3-2.8,17.9-11.3c2.5-8.4-1.3-17.1-8.7-19.3
				C716.7,1117.2,708.7,1122.3,706.1,1130.7z"/>
		</g>
		<g>
			<path class="st0" d="M1098.5,1254.7H297.9c-14.9,0-26.5,14-24.8,30l55.3,524h39.9l-34.6-491.8c-0.6-8.7,5.7-16.1,13.8-16.1h687.2
				c12,0,21.5,11.1,20.6,24l-34.3,486.9h39.9l56.2-534.5C1118.5,1265.2,1109.7,1254.7,1098.5,1254.7L1098.5,1254.7z"/>
			<path d="M1061,1814h-39.9c-0.6,0-1.2-0.3-1.6-0.7c-0.4-0.4-0.6-1.1-0.6-1.7l34.3-486.9c0.4-5.9-1.6-11.7-5.5-15.9
				c-3.5-3.7-8.1-5.8-12.9-5.8H347.5c-3,0-5.9,1.3-8.1,3.6c-2.5,2.6-3.7,6.3-3.5,10.1l34.6,491.8c0,0.6-0.2,1.2-0.6,1.7
				s-1,0.7-1.6,0.7h-39.9c-1.1,0-2.1-0.9-2.2-2l-55.3-524c-0.9-8.7,1.8-17.3,7.5-23.6c5.2-5.7,12.1-8.9,19.6-8.9h800.5
				c5.8,0,11.2,2.4,15.2,6.9c4.4,4.9,6.5,11.5,5.8,18.2l-56.2,534.5C1063.1,1813.1,1062.1,1814,1061,1814L1061,1814z M1023.4,1809.5
				h35.5l56-532.5c0.6-5.5-1.1-10.8-4.7-14.8c-3.2-3.5-7.4-5.4-11.9-5.4H297.9c-6.2,0-11.9,2.6-16.3,7.4c-4.8,5.4-7.1,12.7-6.4,20.1
				l55.1,522h35.5L331.5,1317c-0.4-5,1.3-9.9,4.6-13.4c3-3.2,7.1-5,11.4-5h687.2c6.1,0,11.9,2.6,16.2,7.2c4.7,5.1,7.1,12.1,6.6,19.2
				L1023.4,1809.5L1023.4,1809.5z"/>
		</g>
	</g>
	<g>
		<g>
			<g>
				<path d="M641,857.8c-0.5,0-1-0.2-1.4-0.5c-0.9-0.8-1.1-2.2-0.3-3.1l11.1-13.2c0.8-0.9,2.2-1.1,3.1-0.3s1.1,2.2,0.3,3.1
					L642.8,857C642.3,857.5,641.7,857.8,641,857.8L641,857.8z"/>
				<path d="M615.2,888.5c-0.5,0-1-0.2-1.4-0.5c-0.9-0.8-1.1-2.2-0.3-3.1l11.1-13.2c0.8-0.9,2.2-1.1,3.1-0.3s1.1,2.2,0.3,3.1
					l-11.1,13.2C616.5,888.3,615.8,888.5,615.2,888.5L615.2,888.5z"/>
				<path d="M624.9,859.2c-0.5,0-1-0.2-1.4-0.5l-13.2-11.1c-0.9-0.8-1.1-2.2-0.3-3.1s2.2-1.1,3.1-0.3l13.2,11.1
					c0.9,0.8,1.1,2.2,0.3,3.1C626.2,858.9,625.5,859.2,624.9,859.2L624.9,859.2z"/>
				<path d="M655.7,885c-0.5,0-1-0.2-1.4-0.5L641,873.4c-0.9-0.8-1.1-2.2-0.3-3.1s2.2-1.1,3.1-0.3l13.2,11.1
					c0.9,0.8,1.1,2.2,0.3,3.1C656.9,884.8,656.3,885,655.7,885L655.7,885z"/>
			</g>
			<path d="M580.1,804.5c-1.6,0-3.2-0.2-4.8-0.7c-4.5-1.3-8.3-4.4-10.5-8.6c-4.6-8.6-1.5-19.4,6.9-24c4-2.3,8.7-2.8,13.2-1.5
				c4.5,1.3,8.3,4.4,10.5,8.6c4.6,8.6,1.5,19.4-6.9,24C585.8,803.7,583,804.5,580.1,804.5L580.1,804.5z M573.8,775
				c-6.3,3.5-8.6,11.6-5.1,18.1c1.7,3.2,4.5,5.4,7.8,6.4c3.3,1,6.8,0.6,9.8-1.1c6.3-3.5,8.6-11.6,5.1-18.1c-1.7-3.1-4.5-5.4-7.8-6.4
				C580.3,773,576.8,773.4,573.8,775z"/>
			
				<ellipse transform="matrix(0.9963 -8.646025e-02 8.646025e-02 0.9963 -67.8213 69.7144)" cx="770.9" cy="817.8" rx="13.7" ry="13.5"/>
		</g>
		<g>
			<path d="M1454.3,20.9c-0.6,0-1.1-0.2-1.6-0.6l-9.7-9.7c-0.9-0.9-0.9-2.3,0-3.1c0.9-0.9,2.3-0.9,3.1,0l9.7,9.7
				c0.9,0.9,0.9,2.3,0,3.1C1455.5,20.6,1454.9,20.9,1454.3,20.9L1454.3,20.9z"/>
			<path d="M1488.3,54.8c-0.6,0-1.1-0.2-1.6-0.7l-9.7-9.7c-0.9-0.9-0.9-2.3,0-3.1c0.9-0.9,2.3-0.9,3.1,0l9.7,9.7
				c0.9,0.9,0.9,2.3,0,3.1C1489.4,54.6,1488.9,54.8,1488.3,54.8L1488.3,54.8z"/>
			<path d="M1444.6,54.8c-0.6,0-1.1-0.2-1.6-0.7c-0.9-0.9-0.9-2.3,0-3.1l9.7-9.7c0.9-0.9,2.3-0.9,3.1,0c0.9,0.9,0.9,2.3,0,3.1
				l-9.7,9.7C1445.8,54.6,1445.2,54.8,1444.6,54.8L1444.6,54.8z"/>
			<path d="M1478.6,20.9c-0.6,0-1.1-0.2-1.6-0.6c-0.9-0.9-0.9-2.3,0-3.1l9.7-9.7c0.9-0.9,2.3-0.9,3.1,0c0.9,0.9,0.9,2.3,0,3.1
				l-9.7,9.7C1479.7,20.6,1479.2,20.9,1478.6,20.9L1478.6,20.9z"/>
		</g>
		<g>
			<path d="M1470.1,1653.4c-0.7,0-1.3-0.3-1.8-0.9c-0.7-1-0.6-2.4,0.4-3.1c91.3-69.4,167.6-154.7,226.7-253.4c0.6-1.1,2-1.4,3.1-0.8
				s1.4,2,0.8,3.1c-59.4,99.2-136.1,184.9-227.8,254.7C1471,1653.3,1470.5,1653.4,1470.1,1653.4L1470.1,1653.4z"/>
			<path d="M1625.1,1584.5c-0.5,0-1.1-0.2-1.5-0.6c-0.9-0.8-0.9-2.2-0.1-3.1c36.9-39.6,70.5-82.8,99.7-128.4c0.7-1,2-1.3,3.1-0.7
				c1,0.7,1.3,2,0.7,3.1c-29.4,45.9-63.1,89.3-100.2,129.1C1626.3,1584.3,1625.7,1584.5,1625.1,1584.5L1625.1,1584.5z"/>
		</g>
	</g>
	<g>
		<g>
			<g>
				<path class="st0" d="M892.5,1691.2c10.9-22.6,11.9-45.4,0-68.4l8.5-10.3l282.2,7.8l-8.1,75l-274.8,2.6L892.5,1691.2z"/>
				<path d="M900.5,1700.1c-0.5,0-1-0.2-1.4-0.5l-8-6.7c-0.8-0.7-1-1.8-0.6-2.7c11.1-23.2,11.2-44.9,0-66.4
					c-0.4-0.8-0.3-1.8,0.3-2.4l8.5-10.3c0.4-0.5,1.1-0.8,1.8-0.8l282.2,7.8c0.6,0,1.2,0.3,1.6,0.8s0.6,1.1,0.5,1.7l-8.1,75
					c-0.1,1.1-1.1,2-2.2,2L900.5,1700.1L900.5,1700.1L900.5,1700.1z M895.2,1690.6l6,5l272-2.6l7.6-70.6l-278.7-7.7l-6.9,8.4
					C905.9,1644.7,905.9,1667.4,895.2,1690.6L895.2,1690.6z"/>
			</g>
			<path class="st1" d="M1367.2,1604.2H885c-5.1,0-9.2,4.2-9.2,9.3s4.1,9.3,9.2,9.3h248c14.6,0,26.4,12,26.4,26.7v15
				c0,14.8-11.8,26.7-26.4,26.7H885c-5.1,0-9.2,4.2-9.2,9.3s4.1,9.3,9.2,9.3h482.3c26.9,0,48.7-22.1,48.7-49.2v-7
				C1415.9,1626.2,1394.1,1604.2,1367.2,1604.2L1367.2,1604.2z"/>
		</g>
		<g>
			<g>
				<path class="st0" d="M916.7,1820.8H1357v-100.2H916.7C928.3,1753.3,928.6,1788.9,916.7,1820.8L916.7,1820.8z"/>
				<path d="M1357,1823H916.7c-0.7,0-1.4-0.4-1.8-0.9c-0.4-0.6-0.5-1.4-0.3-2c11.5-30.9,11.5-66,0-98.7c-0.2-0.7-0.1-1.4,0.3-2
					c0.4-0.6,1.1-0.9,1.8-0.9H1357c1.2,0,2.2,1,2.2,2.2v100.2C1359.2,1822,1358.2,1823,1357,1823L1357,1823z M919.9,1818.6h434.9
					v-95.8h-435C930.4,1754.5,930.4,1788.3,919.9,1818.6L919.9,1818.6z"/>
			</g>
			<path d="M1289.3,1757.9H956c-1.2,0-2.2-1-2.2-2.2s1-2.2,2.2-2.2h333.3c1.2,0,2.2,1,2.2,2.2S1290.5,1757.9,1289.3,1757.9z"/>
			<path d="M1289.3,1785.9h-273.8c-1.2,0-2.2-1-2.2-2.2s1-2.2,2.2-2.2h273.8c1.2,0,2.2,1,2.2,2.2S1290.5,1785.9,1289.3,1785.9z"/>
			<path d="M1306.7,1725.3H910.8c-4.2,0-7.6-3.4-7.6-7.6s3.4-7.6,7.6-7.6H1410c18.3,0,33.2,15,33.2,33.6v52.8
				c0,18.5-14.9,33.6-33.2,33.6H910.8c-4.2,0-7.6-3.4-7.6-7.6s3.4-7.6,7.6-7.6h395.8c13,0,23.5-10.6,23.5-23.7v-41.9
				C1330.1,1736,1319.6,1725.3,1306.7,1725.3L1306.7,1725.3z"/>
			<path d="M1127.3,1646.5H923.9c-1.2,0-2.2-1-2.2-2.2s1-2.2,2.2-2.2h203.5c1.2,0,2.2,1,2.2,2.2S1128.5,1646.5,1127.3,1646.5z"/>
		</g>
	</g>
</g>
</svg>
