<svg xmlns="http://www.w3.org/2000/svg" width="766.421" height="96.003" viewBox="0 0 766.421 96.003">
  <g id="Grupo_354" data-name="Grupo 354" transform="translate(44 -4053)">
    <path id="Trazado_9209" data-name="Trazado 9209" d="M78.679,17.175a21.9,21.9,0,0,0-9.1-10.383,35.092,35.092,0,0,0-12.549-4.1,131.284,131.284,0,0,0-14.994-.767H0V94.068H19.351V61.76h33.71a23.031,23.031,0,0,0,4.487-.516l3.971-1.026,2.308-.51A22.275,22.275,0,0,0,77.282,49.329a31.592,31.592,0,0,0,4.6-16.524,36.816,36.816,0,0,0-3.2-15.633M54.971,42.8a24.025,24.025,0,0,1-12.178,2.689H19.342V18.44H41.77a27.228,27.228,0,0,1,12.945,2.435,11.67,11.67,0,0,1,5.633,10.907,12.136,12.136,0,0,1-5.383,11.023" transform="translate(-44 4053)" fill="#eca900"/>
    <path id="Trazado_9210" data-name="Trazado 9210" d="M147.7,55.49a22.611,22.611,0,0,0,13.971-9.1A28.259,28.259,0,0,0,166.16,30.24,33.131,33.131,0,0,0,162.2,13.7a19.191,19.191,0,0,0-12.553-9.876q-2.44-.643-3.08-.767a6.452,6.452,0,0,0-1.663-.129l-2.695-.387L138.623,1.9H86.34V94.067h19.351V58.055h22.691L148.74,94.067H170.4ZM143.354,38.7q-3.47,3.075-13.971,3.075h-23.71V18.451h23.71q10.64,0,14.227,3.081a10.663,10.663,0,0,1,3.078,8.461,11.508,11.508,0,0,1-3.319,8.714" transform="translate(-44 4053)" fill="#eca900"/>
    <path id="Trazado_9211" data-name="Trazado 9211" d="M244.808,94.067V78.048H207.785a16.5,16.5,0,0,1-4.744-.776,13.118,13.118,0,0,1-4.113-2.061l-3.47-3.349a14.307,14.307,0,0,1-2.178-3.223,18.466,18.466,0,0,1-1.153-3.865,40.542,40.542,0,0,1-.9-9.281h53.586V39.47H191.252q0-21.53,21.786-21.529h31.77V1.922q-37.038,0-42.675.769a61.118,61.118,0,0,0-9.879,2.435,29.364,29.364,0,0,0-14.1,10.51,40.816,40.816,0,0,0-6.919,15.506,95.053,95.053,0,0,0-2.052,21.4,44.607,44.607,0,0,0,1.666,12.431,41.205,41.205,0,0,0,4.634,11.276A32.622,32.622,0,0,0,196.5,92.546a8.115,8.115,0,0,0,1.152.266,3.557,3.557,0,0,0,1.026.386,9.437,9.437,0,0,0,2.435.383h2.936l8.222.492Z" transform="translate(-44 4053)" fill="#eca900"/>
    <path id="Trazado_9212" data-name="Trazado 9212" d="M345.676,1.919H325.158L296.836,70.483,269.167,1.919H247.508l39.857,92.145h20.12Z" transform="translate(-44 4053)" fill="#eca900"/>
    <rect id="Rectángulo_8504" data-name="Rectángulo 8504" width="20.238" height="92.145" transform="translate(304.099 4054.919)" fill="#eca900"/>
    <path id="Trazado_9213" data-name="Trazado 9213" d="M450.848,18.2,450.67,2.112l-79.659.067V18.2h29.476v75.87h20.1V18.2Z" transform="translate(-44 4053)" fill="#292929"/>
    <path id="Trazado_9214" data-name="Trazado 9214" d="M538.084,39.265a88.131,88.131,0,0,0-2.179-11.807A34.716,34.716,0,0,0,519.5,5.772Q509.123,0,489.13,0T457.86,12.187q-11.278,12.07-11.282,35.551,0,24,11.282,36.055,11.4,12.193,34.728,12.194a61.288,61.288,0,0,0,20.636-3.081,35.013,35.013,0,0,0,14.236-8.989,41.3,41.3,0,0,0,11.393-29.251,141.226,141.226,0,0,0-.766-15.388m-25.63,31.3q-6.535,9.655-14.227,9.656a65.982,65.982,0,0,1-11.789-.767l-6.409-1.81a15.066,15.066,0,0,1-6.674-5.006,25.455,25.455,0,0,1-3.32-7.571,74.617,74.617,0,0,1-2.432-20.274,34.167,34.167,0,0,1,5.383-19.248A22.19,22.19,0,0,1,492.6,16.041q13.715,0,20,9.655,5.129,7.928,5.129,22.468a41.627,41.627,0,0,1-5.253,22.446" transform="translate(-44 4053)" fill="#292929"/>
    <path id="Trazado_9215" data-name="Trazado 9215" d="M633.539,39.265a87.288,87.288,0,0,0-2.179-11.807,34.7,34.7,0,0,0-16.4-21.686Q604.575,0,584.586,0T553.313,12.187q-11.274,12.07-11.277,35.551,0,24,11.277,36.055,11.41,12.193,34.732,12.194a61.335,61.335,0,0,0,20.636-3.081A34.969,34.969,0,0,0,622.9,83.917a41.316,41.316,0,0,0,11.409-29.251,139.732,139.732,0,0,0-.772-15.388m-25.63,31.3q-6.535,9.655-14.221,9.656a65.982,65.982,0,0,1-11.789-.767l-6.409-1.81a15.078,15.078,0,0,1-6.675-5.006,25.453,25.453,0,0,1-3.319-7.562,74.944,74.944,0,0,1-2.435-20.28,34.168,34.168,0,0,1,5.384-19.248,22.208,22.208,0,0,1,19.613-9.519q13.715,0,19.99,9.655,5.132,7.913,5.129,22.459A41.592,41.592,0,0,1,607.924,70.6" transform="translate(-44 4053)" fill="#292929"/>
    <path id="Trazado_9216" data-name="Trazado 9216" d="M683.535,94.067V78.814c-13.436.045-18.94-.649-22.193-2.529a12.672,12.672,0,0,1-6.056-11.568l-.268-6.536-.127-5.639V1.922H635.667q0,73.56,8.331,82.918c4.982,6.385,11.165,8.958,27.308,9.227Z" transform="translate(-44 4053)" fill="#292929"/>
    <path id="Trazado_9217" data-name="Trazado 9217" d="M766.4,71.126A67.8,67.8,0,0,0,765.112,56a15.081,15.081,0,0,0-4.357-8.2l-2.818-2.309-2.178-1.665a19.249,19.249,0,0,0-5.9-2.306l-2.692-.513-3.078-.383h-7.3q-30.759,0-34.347-2.447a9.974,9.974,0,0,1-3.473-8.379,9.986,9.986,0,0,1,4.1-8.636,19.761,19.761,0,0,1,11.022-2.716h47.793V1.922H711.038q-15.39,0-23.325,6.035-8.972,7.064-8.971,23.762t14.484,22.353a63.432,63.432,0,0,0,21.146,2.567h6.279l4.358-.265q15.506,0,18.837,3.319a4.606,4.606,0,0,1,1.026,1.666,4.626,4.626,0,0,1,.77,2.308,28.27,28.27,0,0,1,.383,5.766,7.243,7.243,0,0,1-4.741,6.409,43.656,43.656,0,0,1-10.259,1.666c-11.931.827-29.634,1.137-48.58,1.34l.13,15.2q67.012,0,74.831-5.9a20.382,20.382,0,0,0,8.971-17.045Z" transform="translate(-44 4053)" fill="#292929"/>
  </g>
</svg>
