<svg xmlns="http://www.w3.org/2000/svg" xmlns:xlink="http://www.w3.org/1999/xlink" width="254" height="31.817" viewBox="0 0 254 31.817">
  <defs>
    <clipPath id="clip-path">
      <rect id="Rect치ngulo_8501" data-name="Rect치ngulo 8501" width="254" height="31.817" fill="none"/>
    </clipPath>
  </defs>
  <g id="Grupo_37" data-name="Grupo 37" clip-path="url(#clip-path)">
    <g id="Grupo_38" data-name="Grupo 38">
      <path id="Trazado_37" data-name="Trazado 37" d="M26.075,8.781a7.257,7.257,0,0,0-3.016-3.441A11.633,11.633,0,0,0,18.9,3.98a43.506,43.506,0,0,0-4.969-.254H0V34.264H6.413V23.557H17.585a7.65,7.65,0,0,0,1.487-.171l1.316-.34.765-.169a7.382,7.382,0,0,0,4.459-3.44,10.47,10.47,0,0,0,1.526-5.476,12.2,12.2,0,0,0-1.062-5.181m-7.858,8.494a7.96,7.96,0,0,1-4.036.891H6.41V9.2h7.433a9.028,9.028,0,0,1,4.29.807A3.868,3.868,0,0,1,20,13.622a4.022,4.022,0,0,1-1.784,3.653" transform="translate(0 -3.089)" fill="#ffc400"/>
      <path id="Trazado_38" data-name="Trazado 38" d="M187.956,21.45a7.494,7.494,0,0,0,4.63-3.016,9.363,9.363,0,0,0,1.487-5.352A10.976,10.976,0,0,0,192.76,7.6,6.36,6.36,0,0,0,188.6,4.327q-.809-.213-1.021-.254a2.137,2.137,0,0,0-.551-.043l-.893-.128-1.188-.212H167.62V34.235h6.413V22.3h7.52L188.3,34.235h7.178Zm-1.441-5.563q-1.15,1.019-4.63,1.019h-7.858V9.175h7.858q3.526,0,4.715,1.021A3.535,3.535,0,0,1,187.62,13a3.814,3.814,0,0,1-1.1,2.888" transform="translate(-139.006 -3.06)" fill="#ffc400"/>
      <path id="Trazado_39" data-name="Trazado 39" d="M353.5,34.268V28.959H341.23a5.471,5.471,0,0,1-1.572-.257,4.348,4.348,0,0,1-1.363-.683l-1.15-1.11a4.731,4.731,0,0,1-.722-1.068,6.112,6.112,0,0,1-.382-1.281,13.426,13.426,0,0,1-.3-3.076H353.5V16.174H335.751q0-7.135,7.22-7.135H353.5V3.73q-12.275,0-14.143.255a20.242,20.242,0,0,0-3.274.807,9.733,9.733,0,0,0-4.672,3.483,13.529,13.529,0,0,0-2.293,5.139,31.509,31.509,0,0,0-.68,7.093,14.784,14.784,0,0,0,.552,4.12,13.653,13.653,0,0,0,1.536,3.737,10.811,10.811,0,0,0,6.965,5.4,2.692,2.692,0,0,0,.382.088,1.169,1.169,0,0,0,.34.128,3.131,3.131,0,0,0,.807.127h.973l2.725.163Z" transform="translate(-272.368 -3.093)" fill="#ffc400"/>
      <path id="Trazado_40" data-name="Trazado 40" d="M513.047,3.729h-6.8l-9.386,22.723L487.691,3.729h-7.178l13.209,30.538h6.668Z" transform="translate(-398.486 -3.093)" fill="#ffc400"/>
      <rect id="Rect치ngulo_8500" data-name="Rect치ngulo 8500" width="6.707" height="30.538" transform="translate(115.364 0.636)" fill="#ffc400"/>
    </g>
    <path id="Trazado_41" data-name="Trazado 41" d="M746.729,9.431,746.67,4.1l-26.4.022V9.431h9.769V34.575H736.7V9.431Z" transform="translate(-597.313 -3.4)" fill="#fff"/>
    <path id="Trazado_42" data-name="Trazado 42" d="M897.316,13.013a29.229,29.229,0,0,0-.722-3.913,11.505,11.505,0,0,0-5.437-7.187Q887.718,0,881.092,0T870.729,4.039q-3.738,4-3.739,11.782,0,7.953,3.739,11.949,3.777,4.041,11.509,4.041a20.3,20.3,0,0,0,6.839-1.021,11.6,11.6,0,0,0,4.718-2.979,13.688,13.688,0,0,0,3.776-9.694,46.76,46.76,0,0,0-.254-5.1m-8.494,10.374q-2.166,3.2-4.715,3.2a21.851,21.851,0,0,1-3.907-.254l-2.124-.6a4.994,4.994,0,0,1-2.212-1.659,8.44,8.44,0,0,1-1.1-2.509,24.715,24.715,0,0,1-.806-6.719,11.321,11.321,0,0,1,1.784-6.379,7.354,7.354,0,0,1,6.5-3.155q4.545,0,6.627,3.2,1.7,2.627,1.7,7.446a13.8,13.8,0,0,1-1.741,7.439" transform="translate(-718.989)" fill="#fff"/>
    <path id="Trazado_43" data-name="Trazado 43" d="M1082.644,13.013a28.96,28.96,0,0,0-.722-3.913,11.5,11.5,0,0,0-5.435-7.187Q1073.045,0,1066.42,0t-10.364,4.039q-3.736,4-3.737,11.782,0,7.953,3.737,11.949,3.782,4.041,11.511,4.041a20.317,20.317,0,0,0,6.839-1.021,11.591,11.591,0,0,0,4.713-2.979,13.693,13.693,0,0,0,3.781-9.694,46.338,46.338,0,0,0-.256-5.1m-8.494,10.374q-2.166,3.2-4.713,3.2a21.851,21.851,0,0,1-3.907-.254l-2.124-.6a4.993,4.993,0,0,1-2.212-1.659,8.426,8.426,0,0,1-1.1-2.506,24.8,24.8,0,0,1-.807-6.721,11.324,11.324,0,0,1,1.784-6.379,7.361,7.361,0,0,1,6.5-3.155q4.545,0,6.625,3.2,1.7,2.622,1.7,7.443a13.785,13.785,0,0,1-1.741,7.439" transform="translate(-872.682)" fill="#fff"/>
    <path id="Trazado_44" data-name="Trazado 44" d="M1249.951,34.268V29.213c-4.453.015-6.277-.215-7.355-.838a4.2,4.2,0,0,1-2.007-3.834l-.089-2.166-.042-1.869V3.73h-6.371q0,24.379,2.761,27.48c1.651,2.116,3.7,2.969,9.05,3.058Z" transform="translate(-1023.42 -3.093)" fill="#fff"/>
    <path id="Trazado_45" data-name="Trazado 45" d="M1346.768,26.664a22.478,22.478,0,0,0-.425-5.012,5,5,0,0,0-1.444-2.718l-.934-.765-.722-.552a6.373,6.373,0,0,0-1.954-.764l-.892-.17-1.02-.127h-2.421q-10.194,0-11.383-.811a3.306,3.306,0,0,1-1.151-2.777,3.31,3.31,0,0,1,1.359-2.862,6.548,6.548,0,0,1,3.653-.9h15.839V3.729h-16.851q-5.1,0-7.73,2-2.973,2.341-2.973,7.875t4.8,7.408a21.023,21.023,0,0,0,7.008.851h2.081l1.444-.088q5.139,0,6.243,1.1a1.526,1.526,0,0,1,.34.552,1.533,1.533,0,0,1,.255.765,9.349,9.349,0,0,1,.127,1.911,2.4,2.4,0,0,1-1.571,2.124,14.483,14.483,0,0,1-3.4.552c-3.954.274-9.821.377-16.1.444l.043,5.039q22.209,0,24.8-1.954a6.756,6.756,0,0,0,2.973-5.649Z" transform="translate(-1092.776 -3.092)" fill="#fff"/>
  </g>
</svg>
